<mxfile host="app.diagrams.net" modified="2024-07-29T18:57:09.476Z" agent="Mozilla/5.0 (Macintosh; Intel Mac OS X 10_15_7) AppleWebKit/537.36 (KHTML, like Gecko) Chrome/125.0.0.0 Safari/537.36" version="24.3.1" etag="yAwaQ039rvY7hqyBrDTn" type="github">
  <diagram name="Page-1" id="0UnwTJudox5gGDrRf6sW">
    <mxGraphModel>
      <root>
        <mxCell id="0" />
        <mxCell id="1" parent="0" />
      </root>
    </mxGraphModel>
  </diagram>
</mxfile>
